<?xml version="1.0" encoding="iso-8859-1"?>
<!-- Generator: Adobe Illustrator 23.0.3, SVG Export Plug-In . SVG Version: 6.00 Build 0)  -->
<svg version="1.1" id="Layer_1" xmlns="http://www.w3.org/2000/svg" xmlns:xlink="http://www.w3.org/1999/xlink" x="0px" y="0px"
	 viewBox="0 0 50 50" style="enable-background:new 0 0 50 50;" xml:space="preserve">
<path style="fill:#252525;stroke:#252525;stroke-width:3;stroke-miterlimit:10;" d="M37,45H13c-4.418,0-8-3.582-8-8V13
	c0-4.418,3.582-8,8-8h24c4.418,0,8,3.582,8,8v24C45,41.418,41.418,45,37,45z"/>
<line style="fill:#252525;stroke:#252525;stroke-width:3;stroke-miterlimit:10;" x1="39" y1="6" x2="39" y2="44"/>
<line style="fill:#252525;stroke:#252525;stroke-width:3;stroke-miterlimit:10;" x1="40" y1="15" x2="45" y2="15"/>
<line style="fill:#252525;stroke:#252525;stroke-width:3;stroke-miterlimit:10;" x1="40" y1="25" x2="45" y2="25"/>
<line style="fill:#252525;stroke:#252525;stroke-width:3;stroke-miterlimit:10;" x1="39" y1="35" x2="45" y2="35"/>
<circle style="fill:#252525;stroke:#252525;stroke-width:3;stroke-miterlimit:10;" cx="22" cy="25" r="12"/>
<circle style="fill:#252525;stroke:#252525;stroke-width:3;stroke-miterlimit:10;" cx="22" cy="23" r="4"/>
<path style="fill:#252525;stroke:#252525;stroke-width:3;stroke-miterlimit:10;" d="M13.708,33.968C15.505,31.574,18.548,30,22,30
	c3.41,0,6.421,1.536,8.226,3.882"/>
</svg>