<!DOCTYPE svg PUBLIC "-//W3C//DTD SVG 1.1//EN" "http://www.w3.org/Graphics/SVG/1.1/DTD/svg11.dtd">

<!-- Uploaded to: SVG Repo, www.svgrepo.com, Transformed by: SVG Repo Mixer Tools -->
<svg fill="#e3e1e3" width="800px" height="800px" viewBox="0 0 200 200" data-name="Layer 1" id="Layer_1" xmlns="http://www.w3.org/2000/svg" transform="rotate(180)">

<g id="SVGRepo_bgCarrier" stroke-width="0"/>

<g id="SVGRepo_tracerCarrier" stroke-linecap="round" stroke-linejoin="round"/>

<g id="SVGRepo_iconCarrier">

<title/>

<path d="M100,15a85,85,0,1,0,85,85A84.93,84.93,0,0,0,100,15Zm0,150a65,65,0,1,1,65-65A64.87,64.87,0,0,1,100,165ZM97.5,57.5a9.9,9.9,0,0,0-14,14L112,100,83.5,128.5a9.9,9.9,0,0,0,14,14L126,114a19.92,19.92,0,0,0,0-28.5Z"/>

</g>

</svg>