<svg xmlns="http://www.w3.org/2000/svg" fill="none" viewBox="0 0 23.502066115702476 27.373874999999998" style="max-height: 500px" width="25" height="25">
<path fill="#282C33" d="M31 2H36.0531V20.3375H45.1281V24.3031H31V2Z"/>
<path fill="#282C33" d="M46.5938 18.5719V8.0625H51.0844V17.9531C51.0844 20.1656 52.0219 21.225 53.8969 21.225C54.3665 21.2493 54.8357 21.1715 55.2723 20.997C55.709 20.8224 56.1026 20.5553 56.426 20.214C56.7495 19.8728 56.9951 19.4654 57.146 19.0201C57.2969 18.5747 57.3494 18.102 57.3 17.6344V8.0625H61.7906V24.375H57.3281V21.8156C56.8398 22.7507 56.0891 23.523 55.1681 24.0375C54.2472 24.5521 53.1961 24.7867 52.1437 24.7125C48.9656 24.7125 46.5938 22.8469 46.5938 18.5719Z"/>
<path fill="#282C33" d="M63.9375 16.425V16.1719C63.8898 15.0511 64.0753 13.9326 64.4825 12.8873C64.8896 11.842 65.5094 10.8927 66.3026 10.0995C67.0958 9.30624 68.0452 8.68643 69.0905 8.2793C70.1358 7.87218 71.2543 7.68661 72.375 7.73437C76.125 7.73437 79.6406 9.38437 80.0438 14.0625H75.75C75.7268 13.658 75.6219 13.2623 75.4416 12.8995C75.2613 12.5366 75.0093 12.214 74.7009 11.9512C74.3925 11.6884 74.0341 11.4907 73.6472 11.3702C73.2604 11.2497 72.8531 11.2088 72.45 11.25C70.1063 11.25 68.55 13.0031 68.55 16.1156V16.3687C68.55 19.6406 70.0125 21.3281 72.5438 21.3281C72.9803 21.3534 73.4175 21.2916 73.8299 21.1465C74.2424 21.0013 74.6219 20.7757 74.9464 20.4826C75.2709 20.1895 75.5339 19.8348 75.7201 19.4392C75.9064 19.0436 76.0121 18.615 76.0313 18.1781H80.1188C79.875 22.0406 77.0625 24.7406 72.3282 24.7406C67.5938 24.7406 63.9375 21.75 63.9375 16.425Z"/>
<path fill="#282C33" d="M82.2656 3.38438C82.2432 2.86948 82.3755 2.35966 82.6456 1.92072C82.9158 1.48179 83.3112 1.13389 83.781 0.921927C84.2508 0.709965 84.7733 0.643672 85.2812 0.731603C85.789 0.819535 86.2588 1.05766 86.63 1.41523C87.0012 1.77281 87.2567 2.23342 87.3635 2.73762C87.4703 3.24182 87.4235 3.76646 87.2292 4.24383C87.0349 4.72119 86.702 5.12937 86.2735 5.41567C85.8449 5.70197 85.3404 5.85326 84.825 5.85C84.4938 5.8613 84.1636 5.80595 83.8541 5.68723C83.5447 5.56851 83.2622 5.38883 83.0235 5.15887C82.7848 4.92891 82.5947 4.65334 82.4645 4.34852C82.3343 4.0437 82.2667 3.71583 82.2656 3.38438V3.38438ZM82.6125 8.07188H87.1031V24.375H82.6125V8.07188Z"/>
<path fill="#282C33" d="M89.0625 16.4531V16.2C89.0625 10.8375 92.1469 7.6875 96.2344 7.6875C97.2714 7.61528 98.3073 7.84183 99.2195 8.3403C100.132 8.83877 100.882 9.58827 101.381 10.5V0.9375H105.872V24.375H101.381V21.6563C100.864 22.5907 100.104 23.368 99.1818 23.906C98.2593 24.444 97.2085 24.7226 96.1406 24.7125C92.1844 24.7125 89.0625 21.8812 89.0625 16.4531ZM101.25 16.2937V16.05C101.25 12.8063 99.8156 11.1469 97.35 11.1469C94.8844 11.1469 93.4219 12.8625 93.4219 16.1063V16.3594C93.4219 19.6031 94.9875 21.1875 97.2281 21.1875C99.4687 21.1875 101.25 19.6031 101.25 16.2937Z"/>
<path fill="#282C33" d="M107.812 16.425V16.1719C107.766 15.0515 107.953 13.9336 108.36 12.889C108.768 11.8443 109.388 10.8956 110.181 10.1026C110.974 9.3097 111.922 8.68984 112.967 8.28221C114.012 7.87458 115.13 7.68804 116.25 7.73437C120 7.73437 123.516 9.38437 123.928 14.0625H119.653C119.63 13.6487 119.521 13.2441 119.334 12.8743C119.147 12.5044 118.885 12.1772 118.566 11.9132C118.246 11.6491 117.876 11.4539 117.477 11.3398C117.079 11.2257 116.661 11.1951 116.25 11.25C113.916 11.25 112.359 13.0031 112.359 16.1156V16.3687C112.359 19.6406 113.822 21.3281 116.344 21.3281C116.781 21.3534 117.218 21.2917 117.631 21.1467C118.044 21.0016 118.425 20.7761 118.75 20.4831C119.075 20.1902 119.339 19.8356 119.526 19.4399C119.713 19.0443 119.82 18.6154 119.841 18.1781H123.928C123.675 22.0406 120.872 24.7406 116.128 24.7406C111.384 24.7406 107.812 21.75 107.812 16.425Z"/>
<path fill="#282C33" d="M126.009 0.9375H130.538V10.65C131.045 9.70142 131.813 8.91817 132.752 8.3931C133.691 7.86802 134.761 7.62315 135.834 7.6875C139.05 7.6875 141.328 9.61875 141.328 13.9875V24.375H136.8V14.6437C136.8 12.4312 135.928 11.3719 133.931 11.3719C131.934 11.3719 130.538 12.5531 130.538 14.9531V24.375H126.009V0.9375Z"/>
<path fill="#282C33" d="M143.306 19.8469C143.306 16.05 146.794 14.6156 151.744 14.6156H153.619V13.9594C153.619 12.0281 153.028 10.9594 150.966 10.9594C150.626 10.9092 150.28 10.9308 149.949 11.0227C149.618 11.1146 149.31 11.2748 149.045 11.493C148.78 11.7112 148.564 11.9825 148.41 12.2894C148.257 12.5964 148.169 12.9321 148.153 13.275H143.878C144.159 9.40313 147.216 7.65 151.209 7.65C155.203 7.65 158.034 9.27188 158.034 13.6969V24.375H153.638V22.4063C153.086 23.1832 152.343 23.804 151.481 24.2082C150.618 24.6124 149.665 24.7861 148.716 24.7125C145.8 24.7125 143.306 23.2781 143.306 19.8469ZM153.619 18.6656V17.2969H151.875C149.25 17.2969 147.722 17.8594 147.722 19.6031C147.722 20.7844 148.444 21.5625 150.094 21.5625C152.1 21.5625 153.628 20.475 153.628 18.6656H153.619Z"/>
<path fill="#282C33" d="M161.006 8.0625H165.534V11.1844C165.948 10.1403 166.679 9.25263 167.624 8.64695C168.57 8.04127 169.682 7.74826 170.803 7.80938V12.0281C167.466 12.0281 165.534 13.0875 165.534 16.2V24.375H161.006V8.0625Z"/>
<path fill="#282C33" d="M173.803 19.5375V11.25H171.713V8.0625H173.803V4.5375H178.294V8.0625H181.875V11.25H178.294V19.1062C178.294 20.4187 178.95 21.0375 180.103 21.0375C180.715 21.0203 181.318 20.88 181.875 20.625V24.375C180.959 24.6198 180.01 24.7241 179.063 24.6844C175.641 24.6844 173.803 22.9406 173.803 19.5375Z"/>
<path fill="#F96B13" d="M0 6.75487V20.2549L11.5 27V23.6323L2.875 18.5613V8.43872L0 6.75487Z"/>
<path fill="#CC4E00" d="M20.125 8.43872V21.9387L23 20.2549V6.75487L20.125 8.43872Z"/>
<path fill="#FFCA73" d="M8.625 1.68385L20.125 8.43872L23 6.75487L11.5 0L8.625 1.68385Z"/>
<path fill="#FFCA73" d="M0 6.75486L2.875 8.43872L5.75 6.75486L2.875 5.06128L0 6.75486Z"/>
<path fill="#CC4E00" d="M2.875 8.43872V18.5613L5.75 16.8774V6.75487L2.875 8.43872Z"/>
<path fill="#CC4E00" d="M11.5 23.6323V27L14.375 25.3162V21.9387L11.5 23.6323Z"/>
<path fill="#FFCA73" d="M2.875 18.5613L11.5 23.6323L14.375 21.9387L5.75 16.8774L2.875 18.5613Z"/>
<path fill="#F96B13" d="M8.625 1.68385V5.06128L17.25 10.1226V20.2549L20.125 21.9387V8.43871L8.625 1.68385Z"/>
</svg>