<svg
   xmlns="http://www.w3.org/2000/svg"
   width="1040"
   height="975"
   viewBox="0 0 1040 975"
   fill="none">
  <g
     id="Clip path group"
     transform="matrix(32.5,0,0,32.5,0,-65)">
    <mask
       id="mask0_4235_5576"
       maskUnits="userSpaceOnUse"
       x="0"
       y="0"
       width="32"
       height="32">
      <g
         id="clip0_10378_6050">
        <path
           id="Vector"
           d="M 32,0 H 0 v 32 h 32 z"
           fill="#ffffff" />
      </g>
    </mask>
    <g
       mask="url(#mask0_4235_5576)">
      <g
         id="Group">
        <path
           id="Vector_2"
           d="M 23.4051,4.32753 C 22.9665,2.9418 21.6806,2 20.2271,2 H 19.1285 C 17.523,2 16.1457,3.14446 15.8516,4.72279 l -1.6325,8.76181 0.4898,-1.6174 c 0.4258,-1.4058 1.7215,-2.36721 3.1903,-2.36721 h 5.1026 l 2.9255,1.02381 1.5561,-1.01856 c -1.4535,0 -2.7394,-0.94708 -3.178,-2.33278 z"
           fill="url(#paint0_radial_4235_5576)" />
        <path
           id="Vector_3"
           d="m 8.94122,27.6571 c 0.43392,1.3931 1.72338,2.342 3.18248,2.342 h 2.1626 c 1.8225,0 3.3071,-1.4636 3.333,-3.2859 l 0.1145,-8.0491 -0.4387,1.4605 c -0.4233,1.4095 -1.7208,2.3745 -3.1924,2.3745 H 9.00122 L 6.363,21.2964 4.88152,22.4991 c 1.45907,0 2.74857,0.949 3.1825,2.342 z"
           fill="url(#paint1_radial_4235_5576)" />
        <path
           id="Vector_4"
           d="M 20.0011,2 H 8.33446 c -3.33333,0 -5.33334,4.29866 -6.66667,8.5973 -1.5796524,5.0929 -3.64666,11.904 2.33333,11.904 h 5.08044 c 1.48204,0 2.78514,-0.9749 3.20184,-2.3971 C 13.1599,17.1121 14.692,11.906 15.8958,7.94148 16.5086,5.92372 17.0189,4.19081 17.8021,3.11167 18.2413,2.50665 18.9731,2 20.0011,2 Z"
           fill="url(#paint2_linear_4235_5576)" />
        <path
           id="Vector_5"
           d="M 20.0011,2 H 8.33446 c -3.33333,0 -5.33334,4.29866 -6.66667,8.5973 -1.5796524,5.0929 -3.64666,11.904 2.33333,11.904 h 5.08044 c 1.48204,0 2.78514,-0.9749 3.20184,-2.3971 C 13.1599,17.1121 14.692,11.906 15.8958,7.94148 16.5086,5.92372 17.0189,4.19081 17.8021,3.11167 18.2413,2.50665 18.9731,2 20.0011,2 Z"
           fill="url(#paint3_linear_4235_5576)" />
        <path
           id="Vector_6"
           d="m 11.999,30.0002 h 11.6667 c 3.3333,0 5.3333,-4.2981 6.6667,-8.5961 C 31.912,16.3121 33.979,9.50195 27.999,9.50195 h -5.0806 c -1.482,0 -2.785,0.97475 -3.2017,2.39705 -0.8766,2.9916 -2.4086,8.1967 -3.6124,12.1605 -0.6127,2.0175 -1.1231,3.7502 -1.9064,4.8292 -0.439,0.6049 -1.171,1.1115 -2.1989,1.1115 z"
           fill="url(#paint4_radial_4235_5576)" />
        <path
           id="Vector_7"
           d="m 11.999,30.0002 h 11.6667 c 3.3333,0 5.3333,-4.2981 6.6667,-8.5961 C 31.912,16.3121 33.979,9.50195 27.999,9.50195 h -5.0806 c -1.482,0 -2.785,0.97475 -3.2017,2.39705 -0.8766,2.9916 -2.4086,8.1967 -3.6124,12.1605 -0.6127,2.0175 -1.1231,3.7502 -1.9064,4.8292 -0.439,0.6049 -1.171,1.1115 -2.1989,1.1115 z"
           fill="url(#paint5_linear_4235_5576)" />
        <path
           id="Vector_8"
           d="M 30.3851,22.5 H 12.1182 c -0.8928,0 -1.6166,0.7238 -1.6166,1.6166 v 6.2668 c 0,0.8928 0.7238,1.6166 1.6166,1.6166 h 18.2669 c 0.8928,0 1.6165,-0.7238 1.6165,-1.6166 v -6.2668 c 0,-0.8928 -0.7237,-1.6166 -1.6165,-1.6166 z"
           fill="#000000" />
        <path
           id="Vector_9"
           fill-rule="evenodd"
           clip-rule="evenodd"
           d="m 11.8086,24.3145 v 5.7918 h 1.0715 v -4.1728 l 1.1747,2.3139 h 0.7143 l 1.1488,-2.3156 v 4.1745 h 1.1059 v -5.7918 h -1.235 l -1.3418,2.6874 -1.3346,-2.6874 z m 8.0057,5.865 c -0.6369,0 -1.1331,-0.152 -1.4889,-0.4561 -0.3528,-0.3041 -0.5292,-0.7616 -0.5292,-1.3727 h 1.0585 c 0,0.2898 0.0832,0.5164 0.2496,0.6799 0.1692,0.1635 0.4045,0.2453 0.7056,0.2453 0.2697,0 0.4763,-0.0689 0.6197,-0.2066 0.1463,-0.1377 0.2194,-0.3557 0.2194,-0.654 0,-0.2869 -0.0889,-0.4948 -0.2667,-0.6239 -0.175,-0.132 -0.4031,-0.198 -0.6842,-0.198 h -0.3486 v -0.8692 h 0.3787 c 0.2525,0 0.4532,-0.0688 0.6024,-0.2066 0.1492,-0.1376 0.2237,-0.3198 0.2237,-0.5464 0,-0.2295 -0.0674,-0.3987 -0.2022,-0.5077 -0.1319,-0.109 -0.3141,-0.1636 -0.5464,-0.1636 -0.2554,0 -0.4533,0.0717 -0.5939,0.2151 -0.1405,0.1406 -0.2108,0.3343 -0.2108,0.581 h -1.0542 c 0,-0.3873 0.0803,-0.7057 0.241,-0.9553 0.1635,-0.2496 0.3858,-0.436 0.6669,-0.5594 0.2811,-0.1262 0.5966,-0.1893 0.9466,-0.1893 0.3242,0 0.624,0.053 0.8994,0.1592 0.2754,0.1062 0.4962,0.2682 0.6626,0.4863 0.1693,0.218 0.2539,0.4976 0.2539,0.839 0,0.3471 -0.0832,0.6225 -0.2495,0.8262 -0.1636,0.2037 -0.3844,0.3471 -0.6627,0.4303 0.3069,0.0631 0.5608,0.2065 0.7616,0.4303 0.2037,0.2209 0.3055,0.5322 0.3055,0.9337 0,0.545 -0.1764,0.9625 -0.5293,1.2522 -0.35,0.2868 -0.8261,0.4303 -1.4285,0.4303 z m 3.464,-0.284 c 0.3184,0.1921 0.6799,0.2883 1.0843,0.2883 0.4074,0 0.7517,-0.0803 1.0327,-0.241 0.284,-0.1607 0.4992,-0.3815 0.6455,-0.6627 0.1463,-0.284 0.2195,-0.6096 0.2195,-0.9767 0,-0.3816 -0.0718,-0.7014 -0.2152,-0.9596 -0.1434,-0.261 -0.3385,-0.4576 -0.5852,-0.5895 -0.2438,-0.1348 -0.5192,-0.2023 -0.8261,-0.2023 -0.2583,0 -0.4849,0.0416 -0.68,0.1249 -0.1921,0.0831 -0.3629,0.1936 -0.512,0.3313 -0.0187,0.0176 -0.0373,0.0355 -0.0558,0.0536 0.0195,-0.5558 0.1027,-0.9767 0.2494,-1.2628 0.1721,-0.3327 0.4159,-0.4991 0.7315,-0.4991 0.1951,0 0.3529,0.0545 0.4734,0.1635 0.1233,0.1061 0.2065,0.2682 0.2495,0.4862 h 1.0585 c -0.0745,-0.4991 -0.2639,-0.8821 -0.568,-1.1489 -0.304,-0.2696 -0.7085,-0.4044 -1.2134,-0.4044 -0.4101,0 -0.7745,0.1047 -1.0929,0.3141 -0.3184,0.2066 -0.568,0.5264 -0.7487,0.9596 -0.1808,0.4302 -0.2711,0.9825 -0.2711,1.6566 0,0.677 0.0918,1.2264 0.2754,1.648 0.1836,0.4189 0.4332,0.7258 0.7487,0.9209 z m 0.1111,-2.0068 c 0.0764,-0.0743 0.1612,-0.1427 0.2546,-0.205 0.2324,-0.1577 0.4948,-0.2367 0.7875,-0.2367 0.2208,0 0.393,0.0775 0.5163,0.2325 0.1234,0.152 0.185,0.3643 0.185,0.6368 0,0.2782 -0.0645,0.5092 -0.1935,0.6927 -0.1263,0.1836 -0.3185,0.2755 -0.5767,0.2755 -0.1663,0 -0.3256,-0.0531 -0.4776,-0.1593 -0.1492,-0.109 -0.2711,-0.2854 -0.3657,-0.5292 -0.0699,-0.1876 -0.1131,-0.4234 -0.1299,-0.7073 z m 4.3469,2.1057 c 0.3011,0.1262 0.6368,0.1893 1.0068,0.1893 0.3672,0 0.6971,-0.0731 0.9897,-0.2194 0.2955,-0.1463 0.5293,-0.3643 0.7014,-0.6541 0.1721,-0.2926 0.2581,-0.6583 0.2581,-1.0972 0,-0.439 -0.0817,-0.7932 -0.2452,-1.0629 -0.1607,-0.2696 -0.3715,-0.4661 -0.6325,-0.5895 -0.2611,-0.1262 -0.5408,-0.1893 -0.8391,-0.1893 -0.2295,0 -0.4289,0.0373 -0.5982,0.1119 -0.1663,0.0717 -0.2925,0.1563 -0.3786,0.2538 l 0.1033,-1.3253 h 2.1558 V 24.4694 H 27.2113 L 26.966,27.589 h 0.9853 c 0.0804,-0.1004 0.1822,-0.1835 0.3056,-0.2495 0.1234,-0.066 0.2739,-0.099 0.4518,-0.099 0.2525,0 0.4576,0.0775 0.6153,0.2324 0.1607,0.152 0.241,0.3987 0.241,0.7401 0,0.37 -0.076,0.6411 -0.2281,0.8132 -0.1491,0.1722 -0.3471,0.2582 -0.5938,0.2582 -0.261,0 -0.4748,-0.0731 -0.6411,-0.2194 -0.1664,-0.1492 -0.2496,-0.3529 -0.2496,-0.611 h -1.0972 c 0,0.3872 0.0875,0.71 0.2624,0.9681 0.1779,0.2554 0.4174,0.4461 0.7187,0.5723 z"
           fill="#ffffff" />
      </g>
    </g>
  </g>
  <defs>
    <radialGradient
       id="paint0_radial_4235_5576"
       cx="0"
       cy="0"
       r="1"
       gradientUnits="userSpaceOnUse"
       gradientTransform="matrix(-7.9438765,-9.3720706,8.8684452,-7.5169978,26.1957,13.5597)">
      <stop
         offset="0.0955758"
         stop-color="#00AEFF" />
      <stop
         offset="0.773185"
         stop-color="#2253CE" />
      <stop
         offset="1"
         stop-color="#0736C4" />
    </radialGradient>
    <radialGradient
       id="paint1_radial_4235_5576"
       cx="0"
       cy="0"
       r="1"
       gradientUnits="userSpaceOnUse"
       gradientTransform="matrix(7.1080637,8.548217,-8.3908991,6.9772499,6.60602,22.3965)">
      <stop
         stop-color="#FFB657" />
      <stop
         offset="0.633728"
         stop-color="#FF5F3D" />
      <stop
         offset="0.923392"
         stop-color="#C02B3C" />
    </radialGradient>
    <linearGradient
       id="paint2_linear_4235_5576"
       x1="7.6361899"
       y1="4.4841299"
       x2="9.2216396"
       y2="23.2815"
       gradientUnits="userSpaceOnUse">
      <stop
         offset="0.156162"
         stop-color="#0D91E1" />
      <stop
         offset="0.487484"
         stop-color="#52B471" />
      <stop
         offset="0.652394"
         stop-color="#98BD42" />
      <stop
         offset="0.937361"
         stop-color="#FFC800" />
    </linearGradient>
    <linearGradient
       id="paint3_linear_4235_5576"
       x1="9.0909796"
       y1="2"
       x2="9.95648"
       y2="22.503201"
       gradientUnits="userSpaceOnUse">
      <stop
         stop-color="#3DCBFF" />
      <stop
         offset="0.246674"
         stop-color="#0588F7"
         stop-opacity="0" />
    </linearGradient>
    <radialGradient
       id="paint4_radial_4235_5576"
       cx="0"
       cy="0"
       r="1"
       gradientUnits="userSpaceOnUse"
       gradientTransform="matrix(-9.2166858,25.710095,-31.400595,-11.256645,28.5983,7.495)">
      <stop
         offset="0.0661714"
         stop-color="#8C48FF" />
      <stop
         offset="0.5"
         stop-color="#F2598A" />
      <stop
         offset="0.895833"
         stop-color="#FFB152" />
    </radialGradient>
    <linearGradient
       id="paint5_linear_4235_5576"
       x1="29.519899"
       y1="8.2504501"
       x2="29.508699"
       y2="13.8335"
       gradientUnits="userSpaceOnUse">
      <stop
         offset="0.0581535"
         stop-color="#F8ADFA" />
      <stop
         offset="0.708063"
         stop-color="#A86EDD"
         stop-opacity="0" />
    </linearGradient>
  </defs>
</svg>
