<?xml version="1.0" encoding="utf-8"?>
<!-- Generator: Adobe Illustrator 23.0.1, SVG Export Plug-In . SVG Version: 6.00 Build 0)  -->
<!DOCTYPE svg PUBLIC "-//W3C//DTD SVG 1.1//EN" "http://www.w3.org/Graphics/SVG/1.1/DTD/svg11.dtd" [
	<!ENTITY ns_extend "http://ns.adobe.com/Extensibility/1.0/">
	<!ENTITY ns_ai "http://ns.adobe.com/AdobeIllustrator/10.0/">
	<!ENTITY ns_graphs "http://ns.adobe.com/Graphs/1.0/">
	<!ENTITY ns_vars "http://ns.adobe.com/Variables/1.0/">
	<!ENTITY ns_imrep "http://ns.adobe.com/ImageReplacement/1.0/">
	<!ENTITY ns_sfw "http://ns.adobe.com/SaveForWeb/1.0/">
	<!ENTITY ns_custom "http://ns.adobe.com/GenericCustomNamespace/1.0/">
	<!ENTITY ns_adobe_xpath "http://ns.adobe.com/XPath/1.0/">
]>
<svg version="1.1" id="Layer_1" xmlns:x="&ns_extend;" xmlns:i="&ns_ai;" xmlns:graph="&ns_graphs;"
	 xmlns="http://www.w3.org/2000/svg" xmlns:xlink="http://www.w3.org/1999/xlink" x="0px" y="0px" viewBox="0 0 240 234"
	 style="enable-background:new 0 0 240 234;" xml:space="preserve">
<style type="text/css">
	.st0{fill:#00005B;}
	.st1{fill:#9999FF;}
</style>
<metadata>
	<sfw  xmlns="&ns_sfw;">
		<slices></slices>
		<sliceSourceBounds  bottomLeftOrigin="true" height="234" width="240" x="8" y="18"></sliceSourceBounds>
	</sfw>
</metadata>
<path class="st0" d="M42.5,0h155C221,0,240,19,240,42.5v149c0,23.5-19,42.5-42.5,42.5h-155C19,234,0,215,0,191.5v-149
	C0,19,19,0,42.5,0z"/>
<g id="Ru">
	<path class="st1" d="M60.7,165.4H41.5c-0.9,0-1.3-0.5-1.3-1.4V61.5c0-1,0.3-1.4,1-1.4c3.8-0.1,7-0.2,9.7-0.2l7.7-0.2
		c2.5-0.1,5-0.1,7.7-0.1H75c9,0,16.6,1.3,22.7,3.8c5.7,2.2,10.6,6,14.1,11c3.3,4.7,4.9,10.6,4.9,17.6c0,4.1-0.8,8.2-2.6,12
		c-1.7,3.6-4.1,6.9-7.1,9.6c-3.1,2.8-6.6,5-10.5,6.5c1.1,1.4,2.6,3.5,4.5,6.4c1.9,2.9,4.1,6,6.4,9.5s4.6,7,6.9,10.6
		c2.3,3.5,4.4,6.8,6.3,9.8c1.9,3,3.3,5.4,4.3,7.1c0.3,0.4,0.5,0.8,0.4,1.3c0,0.4-0.3,0.7-0.7,0.6c0,0,0,0-0.1,0h-23.3
		c-0.5,0-1-0.1-1.4-0.2c-0.3-0.2-0.6-0.4-0.8-0.7c-1.2-1.7-2.7-4-4.4-6.8s-3.6-5.9-5.6-9.3s-4-6.8-6-10.1s-3.7-6.3-5.2-9
		c-0.5-0.8-1.1-1.5-1.8-2.1c-0.6-0.4-1.3-0.6-2-0.6H62v37.5C62,164.9,61.5,165.4,60.7,165.4z M62,107.4h12.6
		c3.6,0.1,7.1-0.4,10.6-1.5c2.7-0.8,5.1-2.5,6.8-4.8c1.7-2.3,2.5-5.1,2.4-8c0-4.9-1.8-8.5-5.5-10.7s-8.5-3.3-14.5-3.3
		c-2.6,0-5,0-7.2,0.1s-4,0.1-5.2,0.2L62,107.4z"/>
	<path class="st1" d="M201.6,86.5v61c0,2.7,0,5.1,0.1,7.2s0.2,3.9,0.3,5.5s0.3,2.9,0.4,3.9c0.1,0.9-0.3,1.3-1.1,1.3H184
		c-0.8,0.1-1.6-0.4-1.9-1.1c-0.2-0.8-0.4-1.6-0.6-2.5c-0.2-0.8-0.2-1.7-0.2-2.5c-3.2,2.9-7.1,5-11.3,6.2c-3.6,1-7.4,1.5-11.1,1.5
		c-3.7,0-7.4-0.5-10.9-1.7c-3.2-1.1-6.2-3-8.5-5.5c-2.6-2.8-4.5-6.1-5.6-9.7c-1.4-4.6-2.1-9.4-2-14.2V86.7c-0.1-0.6,0.3-1.2,1-1.3
		c0.1,0,0.2,0,0.3,0H153c0.6-0.1,1.2,0.3,1.3,1c0,0.1,0,0.2,0,0.3v46.7c0,4.4,1,7.9,2.9,10.4s5.2,3.8,9.7,3.8c2.3,0,4.6-0.4,6.8-1.2
		c2-0.8,3.9-1.9,5.6-3.3V86.5c0-0.8,0.5-1.1,1.4-1.1h19.8c0.5-0.1,1.1,0.3,1.1,0.8C201.6,86.3,201.6,86.4,201.6,86.5z"/>
</g>
</svg>
